<svg id="visual" viewBox="0 0 900 600" width="900" height="600" xmlns="http://www.w3.org/2000/svg" xmlns:xlink="http://www.w3.org/1999/xlink" version="1.1"><path d="M0 91L13.7 91C27.3 91 54.7 91 82 94C109.3 97 136.7 103 163.8 97C191 91 218 73 245.2 62C272.3 51 299.7 47 327 52C354.3 57 381.7 71 409 79C436.3 87 463.7 89 491 84C518.3 79 545.7 67 573 64C600.3 61 627.7 67 654.8 68C682 69 709 65 736.2 63C763.3 61 790.7 61 818 64C845.3 67 872.7 73 886.3 76L900 79L900 0L886.3 0C872.7 0 845.3 0 818 0C790.7 0 763.3 0 736.2 0C709 0 682 0 654.8 0C627.7 0 600.3 0 573 0C545.7 0 518.3 0 491 0C463.7 0 436.3 0 409 0C381.7 0 354.3 0 327 0C299.7 0 272.3 0 245.2 0C218 0 191 0 163.8 0C136.7 0 109.3 0 82 0C54.7 0 27.3 0 13.7 0L0 0Z" fill="#f5f2ff"></path><path d="M0 223L13.7 243C27.3 263 54.7 303 82 328C109.3 353 136.7 363 163.8 356C191 349 218 325 245.2 306C272.3 287 299.7 273 327 278C354.3 283 381.7 307 409 312C436.3 317 463.7 303 491 283C518.3 263 545.7 237 573 219C600.3 201 627.7 191 654.8 197C682 203 709 225 736.2 235C763.3 245 790.7 243 818 240C845.3 237 872.7 233 886.3 231L900 229L900 77L886.3 74C872.7 71 845.3 65 818 62C790.7 59 763.3 59 736.2 61C709 63 682 67 654.8 66C627.7 65 600.3 59 573 62C545.7 65 518.3 77 491 82C463.7 87 436.3 85 409 77C381.7 69 354.3 55 327 50C299.7 45 272.3 49 245.2 60C218 71 191 89 163.8 95C136.7 101 109.3 95 82 92C54.7 89 27.3 89 13.7 89L0 89Z" fill="#f2efff"></path><path d="M0 301L13.7 317C27.3 333 54.7 365 82 388C109.3 411 136.7 425 163.8 428C191 431 218 423 245.2 415C272.3 407 299.7 399 327 400C354.3 401 381.7 411 409 408C436.3 405 463.7 389 491 373C518.3 357 545.7 341 573 331C600.3 321 627.7 317 654.8 321C682 325 709 337 736.2 342C763.3 347 790.7 345 818 342C845.3 339 872.7 335 886.3 333L900 331L900 227L886.3 229C872.7 231 845.3 235 818 238C790.7 241 763.3 243 736.2 233C709 223 682 201 654.8 195C627.7 189 600.3 199 573 217C545.7 235 518.3 261 491 281C463.7 301 436.3 315 409 310C381.7 305 354.3 281 327 276C299.7 271 272.3 285 245.2 304C218 323 191 347 163.8 354C136.7 361 109.3 351 82 326C54.7 301 27.3 261 13.7 241L0 221Z" fill="#f0ebff"></path><path d="M0 343L13.7 367C27.3 391 54.7 439 82 466C109.3 493 136.7 499 163.8 500C191 501 218 497 245.2 488C272.3 479 299.7 465 327 462C354.3 459 381.7 467 409 467C436.3 467 463.7 459 491 443C518.3 427 545.7 403 573 395C600.3 387 627.7 395 654.8 398C682 401 709 399 736.2 403C763.3 407 790.7 417 818 418C845.3 419 872.7 411 886.3 407L900 403L900 329L886.3 331C872.7 333 845.3 337 818 340C790.7 343 763.3 345 736.2 340C709 335 682 323 654.8 319C627.7 315 600.3 319 573 329C545.7 339 518.3 355 491 371C463.7 387 436.3 403 409 406C381.7 409 354.3 399 327 398C299.7 397 272.3 405 245.2 413C218 421 191 429 163.8 426C136.7 423 109.3 409 82 386C54.7 363 27.3 331 13.7 315L0 299Z" fill="#e4daff"></path><path d="M0 601L13.7 601C27.3 601 54.7 601 82 601C109.3 601 136.7 601 163.8 601C191 601 218 601 245.2 601C272.3 601 299.7 601 327 601C354.3 601 381.7 601 409 601C436.3 601 463.7 601 491 601C518.3 601 545.7 601 573 601C600.3 601 627.7 601 654.8 601C682 601 709 601 736.2 601C763.3 601 790.7 601 818 601C845.3 601 872.7 601 886.3 601L900 601L900 401L886.3 405C872.7 409 845.3 417 818 416C790.7 415 763.3 405 736.2 401C709 397 682 399 654.8 396C627.7 393 600.3 385 573 393C545.7 401 518.3 425 491 441C463.7 457 436.3 465 409 465C381.7 465 354.3 457 327 460C299.7 463 272.3 477 245.2 486C218 495 191 499 163.8 498C136.7 497 109.3 491 82 464C54.7 437 27.3 389 13.7 365L0 341Z" fill="#d8caff"></path></svg>